HIERARCHY
ROOT Pelvis
{
	OFFSET 0.000000 0.000000 0.000000
	CHANNELS 6 Xposition Yposition Zposition Zrotation Yrotation Xrotation 
	JOINT Left_hip
	{
		OFFSET 0.069463 -0.088608 -0.009542
		CHANNELS 3 Zrotation Yrotation Xrotation
		JOINT Left_knee
		{
			OFFSET 0.030639 -0.359740 -0.005288
			CHANNELS 3 Zrotation Yrotation Xrotation
			JOINT Left_ankle
			{
				OFFSET -0.011068 -0.376034 -0.042462
				CHANNELS 3 Zrotation Yrotation Xrotation
				JOINT Left_foot
				{
					OFFSET 0.023192 -0.053321 0.111332
					CHANNELS 3 Zrotation Yrotation Xrotation
					End Site
					{
						OFFSET 0.000000 0.000000 0.000000
					}
				}
			}
		}
	}
	JOINT Right_hip
	{
		OFFSET -0.067438 -0.088025 -0.006263
		CHANNELS 3 Zrotation Yrotation Xrotation
		JOINT Right_knee
		{
			OFFSET -0.035962 -0.366229 -0.008063
			CHANNELS 3 Zrotation Yrotation Xrotation
			JOINT Right_ankle
			{
				OFFSET 0.013608 -0.375719 -0.040481
				CHANNELS 3 Zrotation Yrotation Xrotation
				JOINT Right_foot
				{
					OFFSET -0.021034 -0.045527 0.114617
					CHANNELS 3 Zrotation Yrotation Xrotation
					End Site
					{
						OFFSET 0.000000 0.000000 0.000000
					}
				}
			}
		}
	}
	JOINT Spine1
	{
		OFFSET -0.002610 0.101823 -0.019986
		CHANNELS 3 Zrotation Yrotation Xrotation
		JOINT Spine2
		{
			OFFSET 0.004114 0.128714 -0.000938
			CHANNELS 3 Zrotation Yrotation Xrotation
			JOINT Spine3
			{
				OFFSET 0.002191 0.048470 0.027684
				CHANNELS 3 Zrotation Yrotation Xrotation
				JOINT Neck
				{
					OFFSET -0.002856 0.198873 -0.044022
					CHANNELS 3 Zrotation Yrotation Xrotation
					JOINT Head
					{
						OFFSET 0.002981 0.062960 0.049860
						CHANNELS 3 Zrotation Yrotation Xrotation
						End Site
						{
							OFFSET 0.000000 0.000000 0.000000
						}
					}
				}
				JOINT Left_collar
				{
					OFFSET 0.073708 0.112550 -0.033440
					CHANNELS 3 Zrotation Yrotation Xrotation
					JOINT Left_shoulder
					{
						OFFSET 0.083291 0.030786 -0.008013
						CHANNELS 3 Zrotation Yrotation Xrotation
						JOINT Left_elbow
						{
							OFFSET 0.245601 -0.011792 -0.027873
							CHANNELS 3 Zrotation Yrotation Xrotation
							JOINT Left_wrist
							{
								OFFSET 0.232258 0.008622 -0.000487
								CHANNELS 3 Zrotation Yrotation Xrotation
								JOINT Left_palm
								{
									OFFSET 0.077300 -0.009457 -0.012851
									CHANNELS 3 Zrotation Yrotation Xrotation
									End Site
									{
										OFFSET 0.000000 0.000000 0.000000
									}
								}
							}
						}
					}
				}
				JOINT Right_collar
				{
					OFFSET -0.075339 0.110574 -0.037874
					CHANNELS 3 Zrotation Yrotation Xrotation
					JOINT Right_shoulder
					{
						OFFSET -0.086522 0.031207 -0.009986
						CHANNELS 3 Zrotation Yrotation Xrotation
						JOINT Right_elbow
						{
							OFFSET -0.237313 -0.011478 -0.019859
							CHANNELS 3 Zrotation Yrotation Xrotation
							JOINT Right_wrist
							{
								OFFSET -0.237599 0.007976 -0.003742
								CHANNELS 3 Zrotation Yrotation Xrotation
								JOINT Right_palm
								{
									OFFSET -0.076920 -0.006943 -0.009920
									CHANNELS 3 Zrotation Yrotation Xrotation
									End Site
									{
										OFFSET 0.000000 0.000000 0.000000
									}
								}
							}
						}
					}
				}
			}
		}
	}
}
MOTION
Frames: 13
Frame Time: 0.100000
0.000000 0.000000 0.000000 178.985231 25.869448 -22.080860 -0.151224 3.248728 19.239403 1.296348 -15.240370 -3.981308 3.559335 4.173326 -5.347362 -8.443190 8.640826 -3.198123 -1.117522 -6.143776 23.054729 -1.141365 0.738666 -5.261812 -5.655660 -9.243304 -9.037272 10.682898 -1.149686 10.267115 0.998473 1.541735 2.955399 -0.433412 -2.931045 5.375837 -0.995533 -2.050298 -0.912827 -0.404050 -10.248004 11.852490 -3.897842 -11.713543 6.624198 -31.500979 2.875095 5.159557 -51.288816 -6.199900 7.148048 2.943173 -16.606145 12.828091 -13.021688 3.253092 -3.665590 -7.528768 -3.273755 -7.762509 32.149481 4.208133 3.777131 52.787818 3.751443 12.119133 -5.975861 13.716215 -0.504261 8.490784 -3.674011 -1.212735 10.529097 8.246083 -2.429001 
-0.000750 0.000629 -0.003767 178.786859 26.122643 -22.261118 -0.159829 3.201866 19.070793 1.331740 -15.530372 -3.927012 3.473335 4.080799 -5.287589 -8.363587 8.642451 -3.336947 -1.037700 -6.080082 22.550072 -1.157530 0.579012 -4.434028 -5.696233 -9.382127 -9.245877 10.741734 -1.227706 10.176964 0.934374 1.447455 3.226244 -0.454870 -2.934498 5.206394 -1.017489 -2.160356 -0.905351 -0.367884 -10.118937 11.923071 -3.939251 -11.618165 6.673036 -31.491725 3.021093 5.115458 -51.220056 -6.121805 7.147169 2.901023 -16.750805 12.853224 -12.906490 3.288367 -3.553193 -7.550324 -3.266409 -7.875614 32.088302 3.867801 3.621113 52.879395 3.531176 12.073476 -6.264501 14.355526 -0.733373 8.418685 -3.553746 -1.441186 10.488060 8.227562 -2.372599 
-0.001718 0.000998 -0.007279 178.593013 26.550808 -22.439913 -0.241645 3.111018 18.767579 1.313337 -15.646382 -3.565527 3.567379 3.916036 -5.345443 -8.582101 8.613936 -3.315123 -1.035632 -6.192013 22.476865 -1.206716 0.302311 -4.343753 -5.688574 -9.327227 -9.154507 10.808052 -1.375739 10.218555 0.856868 1.478974 3.427456 -0.432980 -2.964736 5.063316 -0.996973 -2.204420 -0.934174 -0.460698 -10.131901 12.074217 -3.998528 -11.652481 6.668350 -31.482117 3.108353 5.140028 -51.222990 -6.168909 7.116100 2.997691 -16.665252 12.768779 -13.085609 3.389220 -3.561759 -7.607793 -3.302079 -7.898979 32.216060 3.617199 3.515758 52.908659 3.526529 11.576409 -6.843334 13.691325 -1.868100 8.447235 -3.589363 -1.842872 10.559192 8.254071 -2.333269 
-0.002035 0.001341 -0.010732 178.429316 26.918180 -22.632554 -0.347775 2.942416 18.516448 1.287521 -15.752703 -3.248602 3.531979 3.898398 -5.271588 -8.579896 8.488988 -3.402221 -1.030448 -6.130022 22.156221 -1.161546 0.027720 -3.738298 -5.778731 -9.361659 -9.169260 10.877673 -1.548055 10.200385 0.907970 1.435136 3.659595 -0.438575 -2.898944 4.914246 -0.981057 -2.172593 -0.925051 -0.574715 -10.267438 11.970402 -4.006190 -11.718216 6.543725 -31.313207 3.257471 5.206916 -51.536123 -6.109400 7.123670 3.267334 -16.893267 12.576358 -13.225150 3.210280 -4.101798 -7.345994 -3.184330 -7.667230 32.072656 3.715639 3.563223 52.902133 3.643224 11.373247 -6.841173 12.719116 -2.182794 8.554049 -3.712402 -2.002166 10.280860 8.127757 -2.193611 
-0.001497 0.001671 -0.013281 178.398477 27.086435 -22.616933 -0.232057 3.008282 18.234245 1.058820 -15.832032 -3.173782 3.557244 3.748802 -5.161778 -8.571086 8.417306 -3.454909 -1.007113 -6.189530 21.659652 -1.200742 0.083158 -3.232685 -5.881417 -9.589301 -9.248283 10.905903 -1.546439 10.030397 0.729549 1.441473 3.656616 -0.472252 -2.929663 4.869210 -1.015007 -2.175121 -0.865076 -0.473323 -10.310053 11.895229 -3.696548 -11.697618 6.228813 -30.758388 3.134001 5.459786 -51.040105 -5.687173 7.386873 2.043353 -17.712459 14.164650 -13.232276 3.013089 -3.846887 -7.538069 -3.179342 -8.019855 31.532560 3.754778 3.655871 53.044074 3.272928 11.686157 -6.507740 14.365359 -0.832845 8.578698 -3.462706 -1.962225 10.333817 8.169603 -2.347814 
-0.000522 0.003204 -0.012780 178.024434 28.242737 -24.239471 0.346750 3.405736 18.824671 0.436524 -16.316802 -1.342088 6.942801 3.221170 -6.681607 -13.537888 9.242103 -1.311068 -1.221720 -6.676656 23.286264 -0.934344 0.352305 -3.084939 -9.417208 -9.161583 -9.620847 16.199484 -3.416027 12.635877 -0.095887 2.040990 3.629693 -0.249654 -3.787568 6.689435 -1.181212 -2.137630 -1.538783 -0.108891 -10.703191 14.864441 -3.228695 -12.445646 5.696480 -30.476785 -2.520665 6.996768 -45.660986 -7.669642 8.460212 -2.443297 -14.066685 20.957897 -17.470155 4.980261 1.462633 -8.681236 -3.504994 -9.861917 32.544577 7.626898 5.184869 50.558337 5.806142 9.558331 -4.305992 7.506925 -0.319102 11.954906 -5.038374 -0.365934 11.367974 8.936197 -3.382861 
0.004756 0.005556 -0.020138 177.378631 22.462344 -23.562030 -0.587822 2.222760 13.902871 1.542131 -13.224821 6.506748 8.833640 6.715833 -8.002120 -13.974712 8.430858 -1.539813 0.211344 -5.247263 20.738838 -0.628778 2.648588 -1.803454 -10.093480 -5.971430 -9.951107 17.978029 -6.291720 13.582400 0.499086 2.227473 3.895914 1.637390 -3.656765 4.210623 -0.015659 -1.567544 -1.865370 -0.214009 -8.964869 18.067609 -5.531724 -10.780853 8.783140 -26.743939 -2.128868 7.047623 -44.362262 -5.969557 12.551406 -7.282548 -27.917561 32.649872 -15.921037 3.907723 3.860200 -10.798337 -3.558875 -10.937589 31.134577 8.753576 3.730906 47.138179 10.891614 8.942594 -7.136741 13.229464 -0.328070 9.262210 -4.089966 0.529864 12.844688 9.189636 -4.830091 
0.005884 0.004090 -0.035430 178.356144 11.251040 -25.792808 0.492540 0.935258 13.590114 1.387403 -16.694644 13.277281 -3.316605 9.704377 -10.201086 3.042441 6.876936 -2.051007 1.768778 -2.539138 21.453409 -1.628432 6.186973 -0.895214 0.866399 -2.795720 -7.257121 8.731077 -6.020032 4.923886 -0.545281 2.817653 9.339886 4.992821 -3.883873 7.803224 1.811111 -0.406805 -0.729738 2.591221 -1.343831 8.287523 -7.969134 -13.501196 6.261791 -18.706582 2.056928 4.888587 -39.303180 2.761140 17.844189 -32.681795 -63.191664 70.414123 -5.991119 -5.934308 11.751494 -13.038581 -3.582910 -18.825428 27.139690 9.654101 -1.241237 49.056227 16.622991 12.645231 -25.401651 46.304346 -14.580349 -3.194199 -0.103209 -8.383100 16.122011 8.773630 -9.768145 
-0.008017 -0.001953 -0.047875 179.609624 2.285842 -22.857272 1.792293 -0.569235 13.586586 1.994986 -20.253259 7.952632 -8.862737 8.637962 -7.924551 12.750505 6.479087 -3.087621 1.399141 0.427884 13.604266 -0.752954 8.614408 5.141157 5.242928 -0.070732 -5.401844 2.350586 -6.960173 0.960798 -1.028198 2.598051 7.916303 6.362355 -3.624755 10.962461 2.612082 0.548621 0.059189 2.067894 3.023518 5.789352 -8.239415 -13.303958 -0.822799 -9.521911 4.509211 6.788931 -38.534464 11.181154 20.532132 -97.269812 -69.156399 136.603615 -0.359095 -8.552625 2.461761 -16.975505 -5.242185 -22.212770 19.596611 9.821412 -3.441865 57.488785 20.892608 17.361521 -91.808281 68.722392 -73.425870 -9.655984 2.182182 -14.397839 19.853701 10.348097 -13.343365 
-0.033755 0.002712 -0.061889 -179.215059 -1.073422 -17.743453 2.684573 2.066966 10.882103 -0.957880 -12.318698 1.744734 -11.646201 7.621176 -7.955427 19.393245 0.657069 -1.805434 -1.311263 2.161554 1.540516 1.553160 1.791979 14.241730 7.717572 1.708893 -6.083081 -4.493754 -11.547624 0.793372 -1.982345 1.782519 5.806680 7.260593 -5.921203 10.982444 2.652018 0.466347 -2.365389 -0.190230 5.942748 7.692590 -6.907026 -12.336079 -6.194789 -9.112964 1.285736 8.755235 -36.310538 22.599504 28.178385 -116.550771 -64.144358 153.359051 20.278535 -17.271804 6.243425 -25.093515 -9.228714 -33.248548 14.869378 13.053702 -4.747881 62.766091 25.885546 25.336169 -147.822312 55.158426 -121.819940 -17.168348 6.170269 -10.529563 19.498970 12.399812 -16.419458 
-0.066916 0.006936 -0.077563 -178.562351 -3.479353 -19.578869 1.988532 4.151205 13.504285 -1.696276 -11.992015 0.119306 -11.037610 6.379733 -7.400031 18.206648 1.321389 -1.666430 -3.484601 -1.880141 -2.220334 1.938560 -6.834459 21.427646 5.323155 -1.378279 -5.867443 -1.330647 -12.849057 0.498964 -0.886761 1.097042 9.150239 6.239371 -6.151937 10.092587 2.243944 0.223336 -2.409533 -0.552840 3.595728 7.895759 -7.862891 -12.635813 -5.674941 -10.014941 -3.129083 9.514653 -41.411195 21.824413 27.729116 -105.281217 -64.955216 142.154200 34.365775 -18.178707 3.127326 -25.107817 -9.877281 -31.898670 12.107670 19.030557 -5.454694 64.380651 33.700662 28.612382 -164.124665 46.660135 -131.781687 -34.550462 11.870149 -0.990768 20.234014 14.154221 -16.289289 
-0.087630 0.011387 -0.080841 -176.845040 -8.220438 -22.551474 1.223553 6.967515 18.070007 -1.793087 -11.988708 -2.189844 -8.463238 5.710657 -6.722336 14.360754 3.362792 -1.762464 -3.579050 -6.506514 -2.750236 -0.670010 -15.752460 25.403363 0.745387 -6.067049 -6.328774 5.345937 -15.071388 0.001568 0.001774 1.490209 11.718520 4.324509 -4.072852 8.013074 0.977749 1.310858 -2.872617 0.096695 -0.767809 10.188029 -8.090377 -14.809497 -2.476866 -10.393008 -3.855972 9.440351 -42.498805 19.074101 25.819680 -94.075871 -65.470455 133.910479 43.244323 -20.488677 5.024241 -23.271614 -8.693196 -30.631108 11.380681 23.087794 -4.525395 70.125233 35.614735 33.054754 -169.859936 44.909985 -133.894048 -48.126359 17.249007 1.571560 19.588761 13.979304 -15.012326 
-0.105315 0.017408 -0.077456 -175.336328 -11.460845 -26.091817 0.282231 8.635468 22.049001 -2.010398 -11.892715 -2.076614 -5.837950 6.038577 -7.601327 10.563787 4.375768 -1.557895 -4.874951 -8.711339 0.956853 -1.333589 -18.183464 24.549008 -2.262231 -6.669570 -7.834700 10.585414 -16.105004 0.410530 0.395805 2.201684 11.467877 3.467929 -2.633027 7.463321 -0.105898 1.975919 -3.241018 0.361939 -4.268162 13.738859 -9.577967 -16.723809 3.227225 -12.652730 -2.337526 9.095474 -41.218444 17.303149 25.297654 -91.932204 -66.604468 132.206934 46.952293 -22.068297 6.791128 -23.014838 -7.538263 -29.750775 14.450238 23.603565 -3.269882 70.358463 34.839453 34.258471 -171.231137 46.233444 -136.558169 -51.869048 17.653400 -2.624821 18.734724 12.850626 -13.219242 
